# xmcd
#
# Track frame offsets: 
#        183
#        40288
#        52383
#        69780
#        83495
#        116183
#        132880
#        147803
#        162950
#
# Disc length: 2352 seconds
#
# Revision: 4
# Processed by: cddbd v1.5.2PL0 Copyright (c) Steve Scherf et al.
# Submitted via: ExactAudioCopy v0.99pb1
#
DISCID=7a092e09
DTITLE=Astor Piazzolla - Original Tango from Argentina cd2
DYEAR=1982
DGENRE=Tango
TTITLE0=Concierto para quinteto
TTITLE1=La casita de mis viejos
TTITLE2=Milonga triste
TTITLE3=El motivo
TTITLE4=Tristeza de un doble A
TTITLE5=El gordo triste
TTITLE6=Un día de paz
TTITLE7=Garúa
TTITLE8=La muerte del ángel
EXTD=
EXTT0=
EXTT1=
EXTT2=
EXTT3=
EXTT4=
EXTT5=
EXTT6=
EXTT7=
EXTT8=
PLAYORDER=
